<svg xmlns="http://www.w3.org/2000/svg" viewBox="0 0 64 64" width="64" height="64"><ellipse cx="32" cy="58.5" rx="22" ry="2.8" fill="#1f2937" opacity="0.12"/><rect x="10" y="18" width="28" height="36" rx="6" fill="#eef5f8" stroke="#9fb3bb" stroke-width="1.4"/><rect x="12" y="25.200000000000003" width="24" height="26.799999999999997" rx="4" fill="#9b5a2a"/><circle cx="31.0" cy="29.1" r="0.8" fill="#744420"/><circle cx="17.6" cy="49.1" r="0.8" fill="#744420"/><circle cx="30.8" cy="41.8" r="0.8" fill="#b98c6a"/><circle cx="19.0" cy="39.4" r="0.8" fill="#b98c6a"/><circle cx="30.4" cy="28.8" r="0.8" fill="#b98c6a"/><circle cx="33.5" cy="42.3" r="0.8" fill="#b98c6a"/><circle cx="16.6" cy="43.6" r="0.8" fill="#b98c6a"/><circle cx="27.9" cy="42.3" r="0.8" fill="#744420"/><circle cx="15.8" cy="48.0" r="0.8" fill="#744420"/><circle cx="28.7" cy="47.3" r="0.8" fill="#744420"/><circle cx="14.9" cy="49.6" r="0.8" fill="#b98c6a"/><circle cx="22.7" cy="41.8" r="0.8" fill="#b98c6a"/><circle cx="20.5" cy="33.4" r="0.8" fill="#b98c6a"/><circle cx="16.5" cy="33.7" r="0.8" fill="#744420"/><rect x="13" y="30.8" width="22" height="9" rx="2" fill="#fff" opacity="0.85"/><rect x="15" y="34.3" width="18" height="2" rx="1" fill="#844d24" opacity="0.8"/><rect x="14" y="23" width="3" height="24" rx="1.5" fill="#fff" opacity="0.6"/><rect x="11" y="14" width="26" height="7" rx="2.5" fill="#3d4b57" stroke="#2b353d" stroke-width="1.2" stroke-linejoin="round" stroke-linecap="round"/><g transform="translate(44 50) rotate(-70)"><rect x="-2.6" y="-12" width="5.2" height="24" rx="2.6" fill="#a0582a" stroke="#703e1d" stroke-width="1" stroke-linejoin="round" stroke-linecap="round"/><path d="M0,-12 V12" fill="none" stroke="#7a3f1a" stroke-width="0.8" stroke-linecap="round" stroke-linejoin="round"/></g><g transform="translate(48 49) rotate(-62)"><rect x="-2.6" y="-12" width="5.2" height="24" rx="2.6" fill="#a0582a" stroke="#703e1d" stroke-width="1" stroke-linejoin="round" stroke-linecap="round"/><path d="M0,-12 V12" fill="none" stroke="#7a3f1a" stroke-width="0.8" stroke-linecap="round" stroke-linejoin="round"/></g><g transform="translate(52 48) rotate(-54)"><rect x="-2.6" y="-12" width="5.2" height="24" rx="2.6" fill="#a0582a" stroke="#703e1d" stroke-width="1" stroke-linejoin="round" stroke-linecap="round"/><path d="M0,-12 V12" fill="none" stroke="#7a3f1a" stroke-width="0.8" stroke-linecap="round" stroke-linejoin="round"/></g></svg>