<svg xmlns="http://www.w3.org/2000/svg" viewBox="0 0 64 64" width="64" height="64"><ellipse cx="32" cy="58.5" rx="22" ry="2.8" fill="#1f2937" opacity="0.12"/><g transform="translate(32 40) scale(1.1) translate(-32 -40)"><path d="M14,40 C10,26 20,14 32,14 C44,14 54,26 50,40" fill="none" stroke="#a5452d" stroke-width="9" stroke-linecap="round" stroke-linejoin="round"/><path d="M14,40 C10,26 20,14 32,14 C44,14 54,26 50,40" fill="none" stroke="#b8573c" stroke-width="6.4" stroke-linecap="round" stroke-linejoin="round"/><path d="M18,28 C22,20 30,18 34,18" fill="none" stroke="#fff" stroke-width="1.6" stroke-linecap="round" stroke-linejoin="round" opacity="0.35"/><path d="M12,42 l-2,4 M52,42 l2,4" fill="none" stroke="#8a6a4a" stroke-width="1.4" stroke-linecap="round" stroke-linejoin="round"/><g transform="translate(26 48)"><circle cx="0" cy="0" r="7" fill="#c86b5a" stroke="#8c4b3f" stroke-width="1.4" stroke-linejoin="round" stroke-linecap="round"/><circle cx="0" cy="0" r="5.6" fill="#e8968a"/><circle cx="-2.0" cy="-0.5" r="0.8" fill="#f6ead9"/><circle cx="-1.4" cy="-0.6" r="0.8" fill="#f6ead9"/><circle cx="-3.0" cy="-1.9" r="0.8" fill="#f6ead9"/><circle cx="-3.4" cy="-1.0" r="0.8" fill="#f6ead9"/><circle cx="0.5" cy="-2.6" r="0.8" fill="#f6ead9"/><circle cx="-3.8" cy="-3.3" r="0.8" fill="#f6ead9"/></g><g transform="translate(40 49)"><circle cx="0" cy="0" r="7" fill="#c86b5a" stroke="#8c4b3f" stroke-width="1.4" stroke-linejoin="round" stroke-linecap="round"/><circle cx="0" cy="0" r="5.6" fill="#e8968a"/><circle cx="2.4" cy="-2.8" r="0.8" fill="#f6ead9"/><circle cx="-1.3" cy="1.4" r="0.8" fill="#f6ead9"/><circle cx="0.3" cy="-1.4" r="0.8" fill="#f6ead9"/><circle cx="2.5" cy="0.3" r="0.8" fill="#f6ead9"/><circle cx="0.7" cy="1.8" r="0.8" fill="#f6ead9"/><circle cx="-1.7" cy="-1.6" r="0.8" fill="#f6ead9"/></g></g></svg>