<svg xmlns="http://www.w3.org/2000/svg" viewBox="0 0 64 64" width="64" height="64"><ellipse cx="32" cy="58.5" rx="22" ry="2.8" fill="#1f2937" opacity="0.12"/><rect x="10" y="20" width="30" height="34" rx="6" fill="#eef5f8" stroke="#9fb3bb" stroke-width="1.4"/><rect x="12" y="25.5" width="26" height="26.5" rx="4" fill="#fbf8ef"/><circle cx="15.1" cy="33.4" r="1.1" fill="#c9c6bf"/><circle cx="19.6" cy="43.0" r="1.1" fill="#c9c6bf"/><circle cx="24.7" cy="48.9" r="1.1" fill="#fcfaf3"/><circle cx="17.5" cy="37.7" r="1.1" fill="#fcfaf3"/><circle cx="29.2" cy="41.6" r="1.1" fill="#c9c6bf"/><circle cx="25.0" cy="47.2" r="1.1" fill="#c9c6bf"/><circle cx="36.0" cy="41.6" r="1.1" fill="#fcfaf3"/><circle cx="27.3" cy="34.0" r="1.1" fill="#c9c6bf"/><circle cx="30.3" cy="33.9" r="1.1" fill="#c9c6bf"/><circle cx="32.0" cy="28.1" r="1.1" fill="#c9c6bf"/><circle cx="19.5" cy="48.4" r="1.1" fill="#c9c6bf"/><circle cx="24.2" cy="36.9" r="1.1" fill="#c9c6bf"/><circle cx="33.0" cy="47.8" r="1.1" fill="#fcfaf3"/><circle cx="33.3" cy="45.6" r="1.1" fill="#fcfaf3"/><circle cx="34.1" cy="39.5" r="1.1" fill="#c9c6bf"/><circle cx="22.6" cy="39.0" r="1.1" fill="#fcfaf3"/><circle cx="30.0" cy="31.0" r="1.1" fill="#c9c6bf"/><circle cx="21.5" cy="47.2" r="1.1" fill="#c9c6bf"/><rect x="13" y="31.96" width="24" height="9" rx="2" fill="#fff" opacity="0.85"/><rect x="15" y="35.46" width="20" height="2" rx="1" fill="#d5d3cb" opacity="0.8"/><rect x="14" y="25" width="3" height="22" rx="1.5" fill="#fff" opacity="0.6"/><rect x="11" y="16" width="28" height="7" rx="2.5" fill="#6b4a2a" stroke="#4b341d" stroke-width="1.2" stroke-linejoin="round" stroke-linecap="round"/><g transform="translate(50 48)"><circle cx="0" cy="0" r="9" fill="#7a4e2c" stroke="#55371f" stroke-width="1.4" stroke-linejoin="round" stroke-linecap="round"/><circle cx="0" cy="0" r="6.6" fill="#fbf8ef"/><path d="M-9,0 H9" fill="none" stroke="#7a4e2c" stroke-width="1.4" stroke-linecap="round" stroke-linejoin="round"/></g></svg>