<svg xmlns="http://www.w3.org/2000/svg" viewBox="0 0 64 64" width="64" height="64"><ellipse cx="32" cy="58.5" rx="22" ry="2.8" fill="#1f2937" opacity="0.12"/><rect x="10" y="18" width="28" height="36" rx="6" fill="#eef5f8" stroke="#9fb3bb" stroke-width="1.4"/><rect x="12" y="25.200000000000003" width="24" height="26.799999999999997" rx="4" fill="#e0a41b"/><circle cx="28.6" cy="40.3" r="0.8" fill="#e9bf5f"/><circle cx="24.7" cy="30.0" r="0.8" fill="#e9bf5f"/><circle cx="19.1" cy="28.4" r="0.8" fill="#a87b14"/><circle cx="20.1" cy="45.1" r="0.8" fill="#e9bf5f"/><circle cx="16.0" cy="44.1" r="0.8" fill="#e9bf5f"/><circle cx="15.2" cy="34.7" r="0.8" fill="#a87b14"/><circle cx="26.1" cy="49.4" r="0.8" fill="#a87b14"/><circle cx="16.9" cy="29.2" r="0.8" fill="#a87b14"/><circle cx="16.0" cy="29.2" r="0.8" fill="#e9bf5f"/><circle cx="31.7" cy="36.2" r="0.8" fill="#e9bf5f"/><circle cx="32.4" cy="36.7" r="0.8" fill="#e9bf5f"/><circle cx="26.4" cy="40.4" r="0.8" fill="#e9bf5f"/><circle cx="21.9" cy="33.8" r="0.8" fill="#a87b14"/><circle cx="27.5" cy="49.4" r="0.8" fill="#a87b14"/><rect x="13" y="30.8" width="22" height="9" rx="2" fill="#fff" opacity="0.85"/><rect x="15" y="34.3" width="18" height="2" rx="1" fill="#be8b17" opacity="0.8"/><rect x="14" y="23" width="3" height="24" rx="1.5" fill="#fff" opacity="0.6"/><rect x="11" y="14" width="26" height="7" rx="2.5" fill="#3d4b57" stroke="#2b353d" stroke-width="1.2" stroke-linejoin="round" stroke-linecap="round"/><path d="M36,55 C40,46 56,46 60,55 Z" fill="#e0a41b" stroke="#a87b14" stroke-width="1" stroke-linejoin="round" stroke-linecap="round"/><circle cx="41.9" cy="51.3" r="0.8" fill="#9d7313"/><circle cx="39.5" cy="51.5" r="0.8" fill="#9d7313"/><circle cx="52.6" cy="50.0" r="0.8" fill="#9d7313"/><circle cx="52.6" cy="53.9" r="0.8" fill="#9d7313"/><circle cx="47.1" cy="50.3" r="0.8" fill="#9d7313"/><circle cx="43.5" cy="51.2" r="0.8" fill="#9d7313"/><circle cx="49.4" cy="53.8" r="0.8" fill="#9d7313"/><circle cx="54.3" cy="50.2" r="0.8" fill="#9d7313"/><circle cx="47.6" cy="52.3" r="0.8" fill="#9d7313"/><circle cx="54.9" cy="52.4" r="0.8" fill="#9d7313"/><circle cx="47.7" cy="52.5" r="0.8" fill="#9d7313"/><circle cx="51.4" cy="49.6" r="0.8" fill="#9d7313"/><circle cx="55.5" cy="50.9" r="0.8" fill="#9d7313"/><circle cx="49.7" cy="53.4" r="0.8" fill="#9d7313"/><circle cx="41.2" cy="49.3" r="0.8" fill="#9d7313"/><circle cx="55.8" cy="50.5" r="0.8" fill="#9d7313"/></svg>