<svg xmlns="http://www.w3.org/2000/svg" viewBox="0 0 64 64" width="64" height="64"><ellipse cx="32" cy="58.5" rx="22" ry="2.8" fill="#1f2937" opacity="0.12"/><path d="M24,14 c-3,-4 3,-6 0,-10 M32,12 c-3,-4 3,-6 0,-10 M40,14 c-3,-4 3,-6 0,-10" fill="none" stroke="#b8c2cc" stroke-width="1.6" stroke-linecap="round" stroke-linejoin="round" opacity="0.8"/><path d="M7,30 C7,48 18,56 32,56 C46,56 57,48 57,30 Z" fill="#fff" stroke="#b4c0cc" stroke-width="1.4" stroke-linejoin="round"/><path d="M10,40 C14,48 22,53 32,53 C42,53 50,48 54,40" fill="none" stroke="#5b8db8" stroke-width="2.2" stroke-linecap="round" stroke-linejoin="round"/><ellipse cx="32" cy="30" rx="25" ry="8" fill="#fff" stroke="#b4c0cc" stroke-width="1.4"/><ellipse cx="32" cy="30.5" rx="22" ry="6.3" fill="#c2a73e"/><ellipse cx="26" cy="28.5" rx="8" ry="1.6" fill="#fff" opacity="0.25"/><ellipse cx="24" cy="30" rx="3" ry="1.9" fill="#c86b5a" stroke="#965044" stroke-width="0.8" stroke-linejoin="round" stroke-linecap="round"/><ellipse cx="24" cy="30" rx="1.8" ry="1" fill="#e8968a"/><ellipse cx="38" cy="32" rx="3" ry="1.9" fill="#c86b5a" stroke="#965044" stroke-width="0.8" stroke-linejoin="round" stroke-linecap="round"/><ellipse cx="38" cy="32" rx="1.8" ry="1" fill="#e8968a"/><rect x="28.2" y="27.6" width="3.6" height="2.8" rx="0.6" fill="#f0c27a" stroke="#b4925c" stroke-width="0.7" stroke-linejoin="round" stroke-linecap="round"/><rect x="42.2" y="28.6" width="3.6" height="2.8" rx="0.6" fill="#f0c27a" stroke="#b4925c" stroke-width="0.7" stroke-linejoin="round" stroke-linecap="round"/><ellipse cx="40.3" cy="31.0" rx="1.2" ry="0.7" fill="#3f9a3a"/><ellipse cx="33.2" cy="27.8" rx="1.2" ry="0.7" fill="#3f9a3a"/><ellipse cx="23.1" cy="27.4" rx="1.2" ry="0.7" fill="#3f9a3a"/><ellipse cx="24.9" cy="32.5" rx="1.2" ry="0.7" fill="#3f9a3a"/><ellipse cx="17.6" cy="32.2" rx="1.2" ry="0.7" fill="#3f9a3a"/><ellipse cx="16.2" cy="29.3" rx="1.2" ry="0.7" fill="#3f9a3a"/><ellipse cx="35.8" cy="33.8" rx="1.2" ry="0.7" fill="#3f9a3a"/></svg>