<svg xmlns="http://www.w3.org/2000/svg" viewBox="0 0 64 64" width="64" height="64"><ellipse cx="32" cy="58.5" rx="22" ry="2.8" fill="#1f2937" opacity="0.12"/><rect x="14" y="20" width="36" height="34" rx="6" fill="#eef5f8" stroke="#9fb3bb" stroke-width="1.4"/><rect x="16" y="22.840000000000003" width="32" height="29.159999999999997" rx="4" fill="#e3b31a"/><ellipse cx="32.8" cy="32.2" rx="1.6" ry="0.7" fill="#9f7d12" transform="rotate(144 32.8 32.2)"/><ellipse cx="41.4" cy="26.0" rx="1.6" ry="0.7" fill="#9f7d12" transform="rotate(27 41.4 26.0)"/><ellipse cx="41.4" cy="32.3" rx="1.6" ry="0.7" fill="#9f7d12" transform="rotate(85 41.4 32.3)"/><ellipse cx="44.4" cy="36.4" rx="1.6" ry="0.7" fill="#9f7d12" transform="rotate(33 44.4 36.4)"/><ellipse cx="34.2" cy="48.8" rx="1.6" ry="0.7" fill="#9f7d12" transform="rotate(125 34.2 48.8)"/><ellipse cx="22.3" cy="29.7" rx="1.6" ry="0.7" fill="#9f7d12" transform="rotate(77 22.3 29.7)"/><ellipse cx="20.5" cy="39.9" rx="1.6" ry="0.7" fill="#9f7d12" transform="rotate(143 20.5 39.9)"/><ellipse cx="40.3" cy="39.6" rx="1.6" ry="0.7" fill="#9f7d12" transform="rotate(39 40.3 39.6)"/><ellipse cx="37.6" cy="39.3" rx="1.6" ry="0.7" fill="#9f7d12" transform="rotate(20 37.6 39.3)"/><ellipse cx="23.9" cy="49.3" rx="1.6" ry="0.7" fill="#9f7d12" transform="rotate(160 23.9 49.3)"/><ellipse cx="39.0" cy="29.9" rx="1.6" ry="0.7" fill="#9f7d12" transform="rotate(174 39.0 29.9)"/><ellipse cx="38.4" cy="42.0" rx="1.6" ry="0.7" fill="#9f7d12" transform="rotate(139 38.4 42.0)"/><ellipse cx="33.8" cy="45.6" rx="1.6" ry="0.7" fill="#9f7d12" transform="rotate(127 33.8 45.6)"/><ellipse cx="37.0" cy="26.0" rx="1.6" ry="0.7" fill="#9f7d12" transform="rotate(36 37.0 26.0)"/><ellipse cx="31.5" cy="44.2" rx="1.6" ry="0.7" fill="#9f7d12" transform="rotate(119 31.5 44.2)"/><ellipse cx="29.1" cy="35.0" rx="1.6" ry="0.7" fill="#9f7d12" transform="rotate(91 29.1 35.0)"/><ellipse cx="41.4" cy="34.1" rx="1.6" ry="0.7" fill="#9f7d12" transform="rotate(29 41.4 34.1)"/><ellipse cx="24.1" cy="27.0" rx="1.6" ry="0.7" fill="#9f7d12" transform="rotate(5 24.1 27.0)"/><rect x="17" y="31.96" width="30" height="9" rx="2" fill="#fff" opacity="0.85"/><rect x="19" y="35.46" width="26" height="2" rx="1" fill="#c19816" opacity="0.8"/><rect x="18" y="25" width="3" height="22" rx="1.5" fill="#fff" opacity="0.6"/><rect x="15" y="16" width="34" height="7" rx="2.5" fill="#7a5a1a" stroke="#553f12" stroke-width="1.2" stroke-linejoin="round" stroke-linecap="round"/></svg>