<svg xmlns="http://www.w3.org/2000/svg" viewBox="0 0 64 64" width="64" height="64"><ellipse cx="32" cy="58.5" rx="22" ry="2.8" fill="#1f2937" opacity="0.12"/><path d="M20.82,10 L20.82,16 C20.82,20 14,20 14,26 L14,52 Q14,56 18,56 L32,56 Q36,56 36,52 L36,26 C36,20 29.18,20 29.18,16 L29.18,10 Z" fill="#f3e6d6" stroke="#9fb3bb" stroke-width="1.4" stroke-linejoin="round"/><path d="M16,26.799999999999997 L34,26.799999999999997 L34,52 Q34,54 32,54 L18,54 Q16,54 16,52 Z" fill="#b5651d"/><rect x="19.82" y="4" width="10.36" height="7" rx="2" fill="#3d2a14" stroke="#2b1d0e" stroke-width="1.2" stroke-linejoin="round" stroke-linecap="round"/><rect x="16.5" y="33.5" width="17" height="12" rx="2" fill="#f6ead2" opacity="0.95"/><rect x="19" y="38.5" width="12" height="2" rx="1" fill="#a09889" opacity="0.7"/><rect x="17" y="25" width="2.5" height="24" rx="1.2" fill="#fff" opacity="0.5"/><ellipse cx="46.4" cy="48.8" rx="1.6" ry="1" fill="#f1e3c2" stroke="#c9b48a" stroke-width="0.4" transform="rotate(14 46.4 48.8)"/><ellipse cx="45.1" cy="45.8" rx="1.6" ry="1" fill="#f1e3c2" stroke="#c9b48a" stroke-width="0.4" transform="rotate(127 45.1 45.8)"/><ellipse cx="54.8" cy="47.7" rx="1.6" ry="1" fill="#f1e3c2" stroke="#c9b48a" stroke-width="0.4" transform="rotate(55 54.8 47.7)"/><ellipse cx="50.3" cy="48.8" rx="1.6" ry="1" fill="#f1e3c2" stroke="#c9b48a" stroke-width="0.4" transform="rotate(53 50.3 48.8)"/><ellipse cx="54.3" cy="53.2" rx="1.6" ry="1" fill="#f1e3c2" stroke="#c9b48a" stroke-width="0.4" transform="rotate(15 54.3 53.2)"/><ellipse cx="41.3" cy="45.0" rx="1.6" ry="1" fill="#f1e3c2" stroke="#c9b48a" stroke-width="0.4" transform="rotate(17 41.3 45.0)"/><ellipse cx="50.0" cy="48.5" rx="1.6" ry="1" fill="#f1e3c2" stroke="#c9b48a" stroke-width="0.4" transform="rotate(133 50.0 48.5)"/><ellipse cx="55.1" cy="47.8" rx="1.6" ry="1" fill="#f1e3c2" stroke="#c9b48a" stroke-width="0.4" transform="rotate(79 55.1 47.8)"/><ellipse cx="47.4" cy="47.1" rx="1.6" ry="1" fill="#f1e3c2" stroke="#c9b48a" stroke-width="0.4" transform="rotate(110 47.4 47.1)"/><ellipse cx="49.3" cy="50.6" rx="1.6" ry="1" fill="#f1e3c2" stroke="#c9b48a" stroke-width="0.4" transform="rotate(120 49.3 50.6)"/><ellipse cx="51.7" cy="52.3" rx="1.6" ry="1" fill="#f1e3c2" stroke="#c9b48a" stroke-width="0.4" transform="rotate(4 51.7 52.3)"/><ellipse cx="45.1" cy="46.6" rx="1.6" ry="1" fill="#f1e3c2" stroke="#c9b48a" stroke-width="0.4" transform="rotate(19 45.1 46.6)"/></svg>