<svg xmlns="http://www.w3.org/2000/svg" viewBox="0 0 64 64" width="64" height="64"><ellipse cx="32" cy="58.5" rx="22" ry="2.8" fill="#1f2937" opacity="0.12"/><path d="M12,18 L12,54 Q12,57 15,57 L49,57 Q52,57 52,54 L52,18 Q52,14 48,14 L16,14 Q12,14 12,18 Z" fill="#f6efc6" stroke="#b9a65a" stroke-width="1.4"/><rect x="14" y="26" width="36" height="29" rx="2" fill="#f2c230"/><path d="M36,14 L36,8 Q36,4 40,4 L46,4 Q50,4 50,8 L50,14" fill="none" stroke="#8a7a3a" stroke-width="2.4" stroke-linecap="round" stroke-linejoin="round"/><rect x="18" y="8" width="10" height="7" rx="2" fill="#d9a441" stroke="#98732e" stroke-width="1.1" stroke-linejoin="round" stroke-linecap="round"/><rect x="17" y="34" width="30" height="12" rx="2" fill="#fff" opacity="0.85"/><path d="M22,42 c2,-6 6,-6 6,-1 c0,-5 4,-5 6,1 c2,-6 6,-6 6,-1" fill="none" stroke="#e8962a" stroke-width="1.4" stroke-linecap="round" stroke-linejoin="round"/></svg>