<svg xmlns="http://www.w3.org/2000/svg" viewBox="0 0 64 64" width="64" height="64"><ellipse cx="32" cy="58.5" rx="22" ry="2.8" fill="#1f2937" opacity="0.12"/><path d="M6,30 L50,22 L58,28 L14,36 Z" fill="#d76461" stroke="#974644" stroke-width="1.4" stroke-linejoin="round" stroke-linecap="round"/><path d="M14,36 L58,28 L58,40 L14,48 Z" fill="#c9302c" stroke="#8d221f" stroke-width="1.4" stroke-linejoin="round" stroke-linecap="round"/><path d="M6,30 L14,36 L14,48 L6,42 Z" fill="#ab2925" stroke="#781d1a" stroke-width="1.4" stroke-linejoin="round" stroke-linecap="round"/><path d="M14,36 L58,28 L58,30 L14,38 Z" fill="#fff" opacity="0.25"/><path d="M16,40 L56,32 L56,34 C42,40 30,56 12,58 C18,52 20,46 16,42 Z" fill="#f3e7cf" stroke="#cdb98d" stroke-width="1.2" stroke-linejoin="round"/><path d="M20,44 L40,40" fill="none" stroke="#fff" stroke-width="1.4" stroke-linecap="round" stroke-linejoin="round" opacity="0.7"/></svg>