<svg xmlns="http://www.w3.org/2000/svg" viewBox="0 0 64 64" width="64" height="64"><ellipse cx="32" cy="58.5" rx="22" ry="2.8" fill="#1f2937" opacity="0.12"/><rect x="10" y="18" width="28" height="36" rx="6" fill="#eef5f8" stroke="#9fb3bb" stroke-width="1.4"/><rect x="12" y="25.200000000000003" width="24" height="26.799999999999997" rx="4" fill="#6b3a1f"/><circle cx="27.0" cy="47.8" r="1.6" fill="#6b3a1f" stroke="#462614" stroke-width="0.6" stroke-linejoin="round" stroke-linecap="round"/><circle cx="16.1" cy="32.4" r="1.6" fill="#6b3a1f" stroke="#462614" stroke-width="0.6" stroke-linejoin="round" stroke-linecap="round"/><circle cx="17.9" cy="34.7" r="1.6" fill="#6b3a1f" stroke="#462614" stroke-width="0.6" stroke-linejoin="round" stroke-linecap="round"/><circle cx="20.8" cy="41.3" r="1.6" fill="#6b3a1f" stroke="#462614" stroke-width="0.6" stroke-linejoin="round" stroke-linecap="round"/><circle cx="33.1" cy="39.0" r="1.6" fill="#6b3a1f" stroke="#462614" stroke-width="0.6" stroke-linejoin="round" stroke-linecap="round"/><circle cx="23.1" cy="37.3" r="1.6" fill="#6b3a1f" stroke="#462614" stroke-width="0.6" stroke-linejoin="round" stroke-linecap="round"/><circle cx="19.1" cy="45.7" r="1.6" fill="#6b3a1f" stroke="#462614" stroke-width="0.6" stroke-linejoin="round" stroke-linecap="round"/><circle cx="29.6" cy="28.1" r="1.6" fill="#6b3a1f" stroke="#462614" stroke-width="0.6" stroke-linejoin="round" stroke-linecap="round"/><circle cx="22.8" cy="39.5" r="1.6" fill="#6b3a1f" stroke="#462614" stroke-width="0.6" stroke-linejoin="round" stroke-linecap="round"/><circle cx="27.1" cy="44.0" r="1.6" fill="#6b3a1f" stroke="#462614" stroke-width="0.6" stroke-linejoin="round" stroke-linecap="round"/><circle cx="30.8" cy="28.1" r="1.6" fill="#6b3a1f" stroke="#462614" stroke-width="0.6" stroke-linejoin="round" stroke-linecap="round"/><circle cx="22.1" cy="47.0" r="1.6" fill="#6b3a1f" stroke="#462614" stroke-width="0.6" stroke-linejoin="round" stroke-linecap="round"/><circle cx="29.6" cy="41.7" r="1.6" fill="#6b3a1f" stroke="#462614" stroke-width="0.6" stroke-linejoin="round" stroke-linecap="round"/><circle cx="21.5" cy="44.7" r="1.6" fill="#6b3a1f" stroke="#462614" stroke-width="0.6" stroke-linejoin="round" stroke-linecap="round"/><circle cx="26.1" cy="42.5" r="1.6" fill="#6b3a1f" stroke="#462614" stroke-width="0.6" stroke-linejoin="round" stroke-linecap="round"/><circle cx="31.7" cy="44.7" r="1.6" fill="#6b3a1f" stroke="#462614" stroke-width="0.6" stroke-linejoin="round" stroke-linecap="round"/><circle cx="26.8" cy="38.0" r="1.6" fill="#6b3a1f" stroke="#462614" stroke-width="0.6" stroke-linejoin="round" stroke-linecap="round"/><circle cx="19.6" cy="31.9" r="1.6" fill="#6b3a1f" stroke="#462614" stroke-width="0.6" stroke-linejoin="round" stroke-linecap="round"/><rect x="13" y="30.8" width="22" height="9" rx="2" fill="#fff" opacity="0.85"/><rect x="15" y="34.3" width="18" height="2" rx="1" fill="#5b311a" opacity="0.8"/><rect x="14" y="23" width="3" height="24" rx="1.5" fill="#fff" opacity="0.6"/><rect x="11" y="14" width="26" height="7" rx="2.5" fill="#3d4b57" stroke="#2b353d" stroke-width="1.2" stroke-linejoin="round" stroke-linecap="round"/><circle cx="56.0" cy="47.0" r="2.6" fill="#6b3a1f" stroke="#462614" stroke-width="0.9" stroke-linejoin="round" stroke-linecap="round"/><circle cx="55.1" cy="46.1" r="0.78" fill="#fff" opacity="0.35"/><circle cx="42.7" cy="51.7" r="2.6" fill="#6b3a1f" stroke="#462614" stroke-width="0.9" stroke-linejoin="round" stroke-linecap="round"/><circle cx="41.7" cy="50.8" r="0.78" fill="#fff" opacity="0.35"/><circle cx="50.2" cy="52.0" r="2.6" fill="#6b3a1f" stroke="#462614" stroke-width="0.9" stroke-linejoin="round" stroke-linecap="round"/><circle cx="49.3" cy="51.1" r="0.78" fill="#fff" opacity="0.35"/><circle cx="53.2" cy="51.1" r="2.6" fill="#6b3a1f" stroke="#462614" stroke-width="0.9" stroke-linejoin="round" stroke-linecap="round"/><circle cx="52.3" cy="50.2" r="0.78" fill="#fff" opacity="0.35"/><circle cx="42.5" cy="52.5" r="2.6" fill="#6b3a1f" stroke="#462614" stroke-width="0.9" stroke-linejoin="round" stroke-linecap="round"/><circle cx="41.5" cy="51.6" r="0.78" fill="#fff" opacity="0.35"/><circle cx="40.5" cy="51.4" r="2.6" fill="#6b3a1f" stroke="#462614" stroke-width="0.9" stroke-linejoin="round" stroke-linecap="round"/><circle cx="39.6" cy="50.5" r="0.78" fill="#fff" opacity="0.35"/><circle cx="54.1" cy="51.1" r="2.6" fill="#6b3a1f" stroke="#462614" stroke-width="0.9" stroke-linejoin="round" stroke-linecap="round"/><circle cx="53.2" cy="50.2" r="0.78" fill="#fff" opacity="0.35"/><circle cx="41.9" cy="47.1" r="2.6" fill="#6b3a1f" stroke="#462614" stroke-width="0.9" stroke-linejoin="round" stroke-linecap="round"/><circle cx="41.0" cy="46.2" r="0.78" fill="#fff" opacity="0.35"/></svg>